<svg id="Layer_1" data-name="Layer 1" xmlns="http://www.w3.org/2000/svg" viewBox="0 0 131 128"><defs><style>.cls-1{fill:none;stroke:#fff;stroke-linecap:round;stroke-linejoin:round;stroke-width:3px;}</style></defs><title>shutterstock_262793753</title><path class="cls-1" d="M41.25,40.09h0a8.37,8.37,0,0,1,11.49,2.7L64.46,61.73a8.32,8.32,0,0,1,3.76-5.35h0A8.37,8.37,0,0,1,79,58.11a8.35,8.35,0,0,1,3.93-6.51h0a8.37,8.37,0,0,1,10.78,1.73,8.35,8.35,0,0,1,3.93-6.51h0c3.9-2.42,9.28-1.32,11.49,2.7l16.22,29.62c13.19,24.08-12.27,55-37.86,43L43.09,101.17a8.37,8.37,0,0,1-4-11.11c3.87-2.4,12.21-3.47,16.39-1.5l8.41,4L38.55,51.58a8.37,8.37,0,0,1,2.7-11.49h0Z"/><path class="cls-1" d="M36.45,68.58A24.23,24.23,0,1,1,68.46,42"/><path class="cls-1" d="M26.68,84.07A42.39,42.39,0,1,1,85.44,34.76"/></svg>