<svg id="Layer_1" data-name="Layer 1" xmlns="http://www.w3.org/2000/svg" viewBox="0 0 131 128"><defs><style>.cls-1{fill:none;stroke:#fff;stroke-linecap:round;stroke-linejoin:round;stroke-width:3px;}</style></defs><title>shutterstock_262793753</title><line class="cls-1" x1="64.51" y1="52.45" x2="64.51" y2="59.93"/><line class="cls-1" x1="64.51" y1="92.55" x2="64.51" y2="100.03"/><path class="cls-1" d="M75.36,63.83a48.91,48.91,0,0,0-9.67-2.57c-16.8-1.89-19,15-1.07,15,17.38-.05,15.74,16.89-1.1,15a49,49,0,0,1-9.65-2.57"/><path class="cls-1" d="M64.51,26.63A49.61,49.61,0,1,1,14.91,76.24,49.61,49.61,0,0,1,64.51,26.63h0Z"/><line class="cls-1" x1="58.73" y1="26.63" x2="58.73" y2="15.4"/><line class="cls-1" x1="70.3" y1="15.4" x2="70.3" y2="26.63"/><polyline class="cls-1" points="96.36 37.14 108.83 24.66 116.09 31.92 103.62 44.4"/><path class="cls-1" d="M51.55,2H77.48a2.25,2.25,0,0,1,2.24,2.24v7.63a2.25,2.25,0,0,1-2.24,2.24H51.55a2.25,2.25,0,0,1-2.24-2.24V4.24A2.25,2.25,0,0,1,51.55,2h0Z"/><path class="cls-1" d="M64.51,36.79A39.45,39.45,0,1,1,25.07,76.24,39.45,39.45,0,0,1,64.51,36.79h0Z"/></svg>