<svg id="Layer_1" data-name="Layer 1" xmlns="http://www.w3.org/2000/svg" viewBox="0 0 131 128"><defs><style>.cls-1{fill:none;stroke:#fff;stroke-linecap:round;stroke-linejoin:round;stroke-width:3px;}</style></defs><title>shutterstock_262793753</title><polyline class="cls-1" points="33.06 24.93 33.06 127.16 97.94 127.16 97.94 24.93"/><path class="cls-1" d="M86.61,65c0-8.74-9.45-15.84-21.11-15.84S44.39,56.22,44.39,65,53.84,80.8,65.5,80.8,86.61,73.71,86.61,65h0Z"/><path class="cls-1" d="M95.08,104.5A19.53,19.53,0,0,0,75.55,124"/><path class="cls-1" d="M35.92,104.5A19.53,19.53,0,0,1,55.45,124"/><path class="cls-1" d="M69.59,96.67a4.09,4.09,0,1,0-4.09,4.09,4.09,4.09,0,0,0,4.09-4.09h0Z"/><path class="cls-1" d="M69.59,33.31A4.09,4.09,0,1,0,65.5,37.4a4.1,4.1,0,0,0,4.09-4.09h0Z"/><path class="cls-1" d="M98.43,41.19h10.09a4.06,4.06,0,0,0,4-4v-8.6a4.07,4.07,0,0,0-4-4h-86a4.08,4.08,0,0,0-4,4v8.6a4.07,4.07,0,0,0,4,4H32.56"/><path class="cls-1" d="M32.56,62.3H7.4a5.28,5.28,0,0,1-5.22-5.22v-51A5.24,5.24,0,0,1,7.4.84H123.6a5.28,5.28,0,0,1,5.22,5.22v51a5.32,5.32,0,0,1-5.22,5.22H98.43"/></svg>