<?xml version="1.0" encoding="utf-8"?>
<!-- Generator: Adobe Illustrator 15.0.0, SVG Export Plug-In  -->
<!DOCTYPE svg PUBLIC "-//W3C//DTD SVG 1.1//EN" "http://www.w3.org/Graphics/SVG/1.1/DTD/svg11.dtd" [
	<!ENTITY ns_flows "http://ns.adobe.com/Flows/1.0/">
]>
<svg version="1.1"
	 xmlns="http://www.w3.org/2000/svg" xmlns:xlink="http://www.w3.org/1999/xlink" xmlns:a="http://ns.adobe.com/AdobeSVGViewerExtensions/3.0/"
	 x="0px" y="0px" width="141px" height="140px" viewBox="0 0 141 140" overflow="visible" enable-background="new 0 0 141 140"
	 xml:space="preserve">
<defs>
</defs>
<rect id="_x3C_Slice_x3E__4_" fill="none" width="141" height="140"/>
<path opacity="0.35" fill="#010101" d="M125.901,3.233H16.531c-7.55,0-13.672,6.122-13.672,13.672v109.371
	c0,7.552,6.122,13.671,13.672,13.671h109.37c7.55,0,13.672-6.12,13.672-13.671V16.905C139.573,9.355,133.451,3.233,125.901,3.233z"
	/>
<path fill="#B8D663" d="M125.901,0.5H16.531c-7.55,0-13.672,6.122-13.672,13.671v109.371c0,7.551,6.122,13.671,13.672,13.671h109.37
	c7.55,0,13.672-6.12,13.672-13.671V14.171C139.573,6.621,133.451,0.5,125.901,0.5z"/>
<path fill="#ABC75A" d="M125.901,0.5H71.218v136.713h54.684c7.55,0,13.672-6.12,13.672-13.671V14.171
	C139.573,6.621,133.451,0.5,125.901,0.5z"/>
<path fill="#73913B" d="M70.742,106.788c0.938,0.631,2.327,0.379,2.988-0.538l38.845-54.229c0.343-0.481,0.475-1.068,0.389-1.651
	c-0.097-0.589-0.399-1.105-0.889-1.464l-12.769-9.398c-0.363-0.274-0.822-0.422-1.281-0.422c-0.921,0.119-1.438,0.45-1.781,0.918
	L68.828,78.299c-0.689,0.97-2.02,1.207-2.984,0.538L42.402,62.924c-0.364-0.243-0.788-0.374-1.218-0.374
	c-0.737,0-1.416,0.367-1.826,0.981l-8.787,13.3c-0.314,0.488-0.444,1.087-0.327,1.678c0.115,0.566,0.449,1.088,0.931,1.408
	L70.742,106.788z"/>
<path fill="#FEFAEA" d="M70.742,101.319c0.938,0.632,2.327,0.379,2.988-0.538l38.845-54.229c0.343-0.482,0.475-1.068,0.389-1.651
	c-0.097-0.589-0.399-1.106-0.889-1.465l-12.769-9.397c-0.363-0.274-0.822-0.422-1.281-0.422c-0.921,0.119-1.438,0.45-1.781,0.917
	L68.828,72.831c-0.689,0.969-2.02,1.207-2.984,0.538L42.402,57.455c-0.364-0.243-0.788-0.373-1.218-0.373
	c-0.737,0-1.416,0.367-1.826,0.981l-8.787,13.301c-0.314,0.488-0.444,1.086-0.327,1.677c0.115,0.566,0.449,1.089,0.931,1.408
	L70.742,101.319z"/>
</svg>
