<?xml version="1.0" encoding="utf-8"?>
<!-- Generator: Adobe Illustrator 15.0.0, SVG Export Plug-In  -->
<!DOCTYPE svg PUBLIC "-//W3C//DTD SVG 1.1//EN" "http://www.w3.org/Graphics/SVG/1.1/DTD/svg11.dtd" [
	<!ENTITY ns_flows "http://ns.adobe.com/Flows/1.0/">
]>
<svg version="1.1"
	 xmlns="http://www.w3.org/2000/svg" xmlns:xlink="http://www.w3.org/1999/xlink" xmlns:a="http://ns.adobe.com/AdobeSVGViewerExtensions/3.0/"
	 x="0px" y="0px" width="141px" height="141px" viewBox="0 -0.333 141 141"
	 overflow="visible" enable-background="new 0 -0.333 141 141" xml:space="preserve">
<defs>
</defs>
<path opacity="0.35" fill="#010101" d="M128.26,114.782c0,6.397-5.187,11.584-11.585,11.584H24.007
	c-6.397,0-11.584-5.187-11.584-11.584V47.598c0-6.397,5.187-11.584,11.584-11.584h92.668c6.398,0,11.585,5.187,11.585,11.584
	V114.782z"/>
<path opacity="0.35" fill="#010101" d="M111.858,15.713h-83.18c-5.741,0-10.397,4.655-10.397,10.398v83.179
	c0,5.743,4.656,10.396,10.397,10.396h83.18c5.74,0,10.397-4.653,10.397-10.396V26.111C122.256,20.368,117.599,15.713,111.858,15.713
	z"/>
<path fill="#B8D663" d="M111.858,13.634h-83.18c-5.741,0-10.397,4.656-10.397,10.398v83.179c0,5.742,4.656,10.396,10.397,10.396
	h83.18c5.74,0,10.397-4.654,10.397-10.396V24.032C122.256,18.29,117.599,13.634,111.858,13.634z"/>
<path fill="#ABC75A" d="M111.858,13.634h-41.59v103.974h41.59c5.74,0,10.397-4.654,10.397-10.396V24.032
	C122.256,18.29,117.599,13.634,111.858,13.634z"/>
<path fill="#73913B" d="M69.907,72.936c0.714,0.479,1.77,0.288,2.273-0.409l29.542-41.242c0.261-0.366,0.361-0.812,0.295-1.256
	c-0.073-0.448-0.304-0.841-0.677-1.113l-9.711-7.146c-0.274-0.21-0.623-0.322-0.974-0.322c-0.698,0.091-1.093,0.343-1.355,0.698
	L68.453,51.27c-0.525,0.737-1.538,0.918-2.271,0.409L48.354,39.575c-0.276-0.185-0.597-0.282-0.924-0.282
	c-0.562,0-1.077,0.278-1.391,0.746l-6.683,10.114c-0.24,0.372-0.337,0.827-0.247,1.274c0.087,0.432,0.342,0.829,0.705,1.073
	L69.907,72.936z"/>
<path fill="#FEFAEA" d="M69.907,68.776c0.714,0.48,1.77,0.289,2.273-0.408l29.542-41.243c0.261-0.366,0.361-0.812,0.295-1.256
	c-0.073-0.446-0.304-0.84-0.677-1.114l-9.711-7.147c-0.274-0.207-0.623-0.319-0.974-0.319c-0.698,0.09-1.093,0.342-1.355,0.698
	L68.453,47.111c-0.525,0.737-1.538,0.917-2.271,0.408L48.354,35.418c-0.276-0.186-0.597-0.285-0.924-0.285
	c-0.562,0-1.077,0.279-1.391,0.747l-6.683,10.114c-0.24,0.372-0.337,0.828-0.247,1.276c0.087,0.43,0.342,0.828,0.705,1.07
	L69.907,68.776z"/>
<path fill="#E9E1C9" d="M70.341,82.928L13.367,40.7c-0.604,1.404-0.944,2.953-0.944,4.58v67.186c0,6.396,5.187,11.584,11.584,11.584
	h92.668c6.398,0,11.585-5.188,11.585-11.584V45.28c0-1.627-0.34-3.176-0.944-4.58L70.341,82.928z"/>
<polygon fill="#C3B795" points="70.341,82.349 14.74,41.806 70.341,90.457 125.942,41.806 "/>
<rect id="_x3C_Slice_x3E__3_" fill="none" width="141" height="140"/>
</svg>
