<?xml version="1.0" encoding="utf-8"?>
<!-- Generator: Adobe Illustrator 15.0.0, SVG Export Plug-In  -->
<!DOCTYPE svg PUBLIC "-//W3C//DTD SVG 1.1//EN" "http://www.w3.org/Graphics/SVG/1.1/DTD/svg11.dtd" [
	<!ENTITY ns_flows "http://ns.adobe.com/Flows/1.0/">
]>
<svg version="1.1"
	 xmlns="http://www.w3.org/2000/svg" xmlns:xlink="http://www.w3.org/1999/xlink" xmlns:a="http://ns.adobe.com/AdobeSVGViewerExtensions/3.0/"
	 x="0px" y="0px" width="141px" height="141px" viewBox="0 -0.333 141 141"
	 overflow="visible" enable-background="new 0 -0.333 141 141" xml:space="preserve">
<defs>
</defs>
<path opacity="0.35" fill="#010101" d="M12.218,28.592c0-6.442,5.224-11.665,11.665-11.665h93.312
	c6.441,0,11.665,5.223,11.665,11.665v85.149c0,6.442-5.224,11.663-11.665,11.663H23.883c-6.441,0-11.665-5.221-11.665-11.663V28.592
	z"/>
<path fill="#9A772C" d="M117.195,14.595h-34.97v108.477h34.97c6.441,0,11.665-5.222,11.665-11.664V26.259
	C128.86,19.817,123.637,14.595,117.195,14.595z"/>
<path fill="#8FB140" d="M34.38,118.406c-6.441,0-11.664-5.223-11.664-11.664V30.925c0-6.441,5.223-11.664,11.664-11.664h78.15
	c6.442,0,11.664,5.223,11.664,11.664v75.817c0,6.441-5.222,11.664-11.664,11.664H34.38z"/>
<path fill="#73913B" d="M77.538,30.925v75.817c0,6.441-5.223,11.664-11.665,11.664h3.499c6.442,0,11.665-5.223,11.665-11.664V30.925
	c0-6.441-5.223-11.664-11.665-11.664h-3.499C72.315,19.261,77.538,24.483,77.538,30.925z"/>
<path fill="#73913B" d="M89.201,30.925v75.817c0,6.441-5.221,11.664-11.663,11.664h3.499c6.442,0,11.664-5.223,11.664-11.664V30.925
	c0-6.441-5.222-11.664-11.664-11.664h-3.499C83.98,19.261,89.201,24.483,89.201,30.925z"/>
<path fill="#73913B" d="M100.865,30.925v75.817c0,6.441-5.222,11.664-11.664,11.664h3.5c6.442,0,11.664-5.223,11.664-11.664V30.925
	c0-6.441-5.222-11.664-11.664-11.664h-3.5C95.644,19.261,100.865,24.483,100.865,30.925z"/>
<path fill="#73913B" d="M112.53,30.925v75.817c0,6.441-5.222,11.664-11.665,11.664h3.5c6.442,0,11.663-5.223,11.663-11.664V30.925
	c0-6.441-5.221-11.664-11.663-11.664h-3.5C107.309,19.261,112.53,24.483,112.53,30.925z"/>
<path fill="#73913B" d="M34.38,114.324c-4.18,0-7.582-3.401-7.582-7.582V30.925c0-4.18,3.402-7.582,7.582-7.582h23.327
	c4.181,0,7.583,3.402,7.583,7.582v75.817c0,4.181-3.402,7.582-7.583,7.582H34.38z"/>
<path fill="#B8D663" d="M57.707,27.425c1.931,0,3.5,1.57,3.5,3.5v75.817c0,1.93-1.569,3.5-3.5,3.5H34.38
	c-1.93,0-3.499-1.57-3.499-3.5V30.925c0-1.93,1.569-3.5,3.499-3.5H57.707 M57.707,19.261H34.38c-6.441,0-11.664,5.223-11.664,11.664
	v75.817c0,6.441,5.223,11.664,11.664,11.664h23.327c6.444,0,11.665-5.223,11.665-11.664V30.925
	C69.372,24.483,64.151,19.261,57.707,19.261L57.707,19.261z"/>
<path fill="#CA9E31" d="M12.218,26.259c0-6.441,5.224-11.664,11.665-11.664h59.486c6.442,0,11.664,5.222,11.664,11.664v85.149
	c0,6.442-5.222,11.664-11.664,11.664H23.883c-6.441,0-11.665-5.222-11.665-11.664V26.259z"/>
<path fill="#9A772C" d="M128.86,57.753H71.705c-6.441,0-11.664,5.222-11.664,11.664v8.166c0,6.443,5.223,11.664,11.664,11.664
	h57.155V57.753z"/>
<path fill="#DAB14D" d="M128.86,53.086H71.705c-6.441,0-11.664,5.223-11.664,11.665v8.165c0,6.443,5.223,11.664,11.664,11.664
	h57.155V53.086z"/>
<rect x="95.033" y="53.086" fill="#CA9E31" width="33.827" height="31.494"/>
<circle fill="#FEFAEA" cx="75.788" cy="68.833" r="8.748"/>
<rect id="_x3C_Slice_x3E__3_" fill="none" width="141" height="140"/>
</svg>
