<?xml version="1.0" encoding="utf-8"?>
<!-- Generator: Adobe Illustrator 15.0.0, SVG Export Plug-In  -->
<!DOCTYPE svg PUBLIC "-//W3C//DTD SVG 1.1//EN" "http://www.w3.org/Graphics/SVG/1.1/DTD/svg11.dtd" [
	<!ENTITY ns_flows "http://ns.adobe.com/Flows/1.0/">
]>
<svg version="1.1"
	 xmlns="http://www.w3.org/2000/svg" xmlns:xlink="http://www.w3.org/1999/xlink" xmlns:a="http://ns.adobe.com/AdobeSVGViewerExtensions/3.0/"
	 x="0px" y="0px" width="532px" height="117px" viewBox="-0.992 0 532 117"
	 overflow="visible" enable-background="new -0.992 0 532 117" xml:space="preserve">
<defs>
</defs>
<path fill="#FFFFFF" d="M73.551,109.981c-3.085,2.2-7.012,3.777-11.783,4.732c-4.771,0.956-9.664,1.435-14.674,1.435
	c-6.072,0-11.833-0.939-17.277-2.819c-5.446-1.88-10.242-4.916-14.385-9.108c-4.146-4.193-7.446-9.637-9.903-16.337
	c-2.458-6.698-3.687-14.819-3.687-24.361c0-9.926,1.374-18.239,4.121-24.939c2.747-6.698,6.312-12.095,10.698-16.192
	c4.385-4.096,9.275-7.035,14.674-8.819c5.397-1.782,10.793-2.674,16.192-2.674c5.783,0,10.674,0.386,14.674,1.157
	c3.999,0.772,7.301,1.687,9.903,2.747l-3.903,16.771c-2.218-1.059-4.843-1.83-7.879-2.313c-3.036-0.481-6.723-0.723-11.06-0.723
	c-8.001,0-14.435,2.851-19.3,8.548c-4.868,5.699-7.301,14.537-7.301,26.511c0,5.216,0.578,9.974,1.735,14.27
	c1.157,4.299,2.914,7.97,5.277,11.01c2.361,3.043,5.3,5.41,8.819,7.1c3.517,1.689,7.59,2.534,12.216,2.534
	c4.337,0,7.999-0.434,10.988-1.301c2.986-0.868,5.589-1.975,7.807-3.325L73.551,109.981z"/>
<path fill="#FFFFFF" d="M81.937,46.029c3.854-1.735,8.433-3.108,13.734-4.12c5.3-1.012,10.843-1.518,16.626-1.518
	c5.011,0,9.203,0.603,12.578,1.807c3.373,1.206,6.047,2.917,8.024,5.132c1.974,2.218,3.373,4.868,4.193,7.952
	c0.817,3.086,1.229,6.556,1.229,10.409c0,4.243-0.145,8.507-0.434,12.795c-0.289,4.29-0.458,8.507-0.506,12.65
	c-0.05,4.145,0.072,8.168,0.361,12.072c0.289,3.904,1.012,7.59,2.168,11.06h-15.325l-3.036-9.976h-0.723
	c-1.929,2.989-4.604,5.566-8.024,7.735c-3.422,2.168-7.832,3.253-13.229,3.253c-3.375,0-6.411-0.506-9.108-1.518
	c-2.7-1.012-5.013-2.458-6.939-4.337c-1.929-1.879-3.422-4.096-4.482-6.65c-1.062-2.553-1.59-5.421-1.59-8.602
	c0-4.432,0.987-8.168,2.964-11.205c1.974-3.036,4.818-5.494,8.53-7.374c3.709-1.879,8.144-3.181,13.301-3.903
	c5.155-0.723,10.916-0.94,17.277-0.65c0.673-5.397,0.289-9.275-1.157-11.638c-1.446-2.361-4.676-3.542-9.687-3.542
	c-3.759,0-7.735,0.386-11.927,1.157c-4.193,0.772-7.64,1.785-10.337,3.036L81.937,46.029z M105.792,99.811
	c3.759,0,6.746-0.842,8.964-2.53c2.216-1.686,3.854-3.493,4.916-5.422v-9.397c-2.989-0.29-5.855-0.337-8.602-0.145
	c-2.747,0.194-5.182,0.628-7.301,1.301c-2.121,0.676-3.809,1.64-5.06,2.892c-1.254,1.254-1.879,2.844-1.879,4.771
	c0,2.7,0.795,4.796,2.385,6.289C100.804,99.066,102.995,99.811,105.792,99.811z"/>
<path fill="#FFFFFF" d="M182.559,94.173c0-1.927-0.82-3.47-2.458-4.626c-1.64-1.157-3.664-2.216-6.072-3.181
	c-2.41-0.962-5.06-1.952-7.952-2.964c-2.891-1.012-5.543-2.408-7.952-4.192c-2.41-1.783-4.434-4.048-6.072-6.795
	c-1.64-2.747-2.458-6.289-2.458-10.626c0-7.132,2.119-12.578,6.361-16.337c4.24-3.759,10.36-5.638,18.361-5.638
	c5.494,0,10.457,0.578,14.892,1.735c4.432,1.156,7.902,2.458,10.409,3.903l-4.192,13.59c-2.219-0.867-5.014-1.782-8.386-2.747
	c-3.375-0.962-6.795-1.446-10.265-1.446c-5.591,0-8.385,2.168-8.385,6.506c0,1.735,0.817,3.133,2.458,4.192
	c1.638,1.062,3.662,2.049,6.072,2.964c2.408,0.917,5.061,1.904,7.951,2.964c2.893,1.062,5.541,2.435,7.952,4.12
	c2.407,1.688,4.433,3.881,6.071,6.578c1.639,2.7,2.459,6.169,2.459,10.41c0,7.326-2.338,13.084-7.012,17.276
	c-4.677,4.193-11.688,6.289-21.036,6.289c-5.11,0-9.903-0.65-14.385-1.952s-8.121-2.819-10.916-4.554l5.205-14.023
	c2.216,1.253,5.155,2.482,8.819,3.687c3.662,1.206,7.42,1.807,11.277,1.807c2.794,0,5.035-0.529,6.723-1.59
	C181.713,98.462,182.559,96.68,182.559,94.173z"/>
<path fill="#FFFFFF" d="M256.436,114.124V73.065c0-5.878-0.82-10.12-2.458-12.723c-1.64-2.602-4.626-3.903-8.964-3.903
	c-3.181,0-6.097,1.084-8.746,3.253c-2.652,2.168-4.41,4.94-5.277,8.313v46.119h-18.795V12.922h18.795v37.011h0.578
	c2.312-3.083,5.154-5.542,8.529-7.374c3.373-1.83,7.663-2.747,12.867-2.747c3.662,0,6.891,0.483,9.688,1.445
	c2.793,0.965,5.133,2.555,7.012,4.771c1.879,2.218,3.275,5.229,4.191,9.036c0.916,3.809,1.375,8.507,1.375,14.096v44.963H256.436z"
	/>
<path fill="#8AB93F" d="M295.181,97.209h21.687V41.548l2.458-9.976l-7.519,8.675l-14.168,9.252l-8.096-11.855l35.42-26.457h11.422
	v86.022h21.252v16.915h-62.456V97.209z"/>
<path fill="#8AB93F" d="M360.238,63.378c0-17.252,3.301-30.311,9.903-39.18c6.602-8.867,16.07-13.301,28.409-13.301
	c13.204,0,22.915,4.362,29.132,13.084c6.217,8.724,9.325,21.855,9.325,39.396c0,17.157-3.325,30.241-9.976,39.252
	c-6.65,9.013-16.146,13.518-28.481,13.518c-6.556,0-12.241-1.229-17.06-3.687c-4.821-2.458-8.797-5.975-11.928-10.554
	c-3.133-4.577-5.471-10.121-7.012-16.626C361.008,78.775,360.238,71.475,360.238,63.378z M381.057,63.378
	c0,11.085,1.349,19.832,4.048,26.24c2.697,6.411,7.179,9.614,13.445,9.614c6.361,0,10.891-2.892,13.59-8.674
	c2.697-5.783,4.048-14.842,4.048-27.18c0-5.494-0.313-10.432-0.939-14.819c-0.628-4.385-1.615-8.119-2.964-11.205
	c-1.351-3.083-3.158-5.444-5.421-7.084c-2.267-1.638-5.038-2.458-8.313-2.458c-6.267,0-10.748,3.014-13.445,9.036
	C382.406,42.874,381.057,51.718,381.057,63.378z"/>
<path fill="#8AB93F" d="M444.378,97.209h21.687V41.548l2.458-9.976l-7.519,8.675l-14.168,9.252l-8.096-11.855l35.42-26.457h11.422
	v86.022h21.252v16.915h-62.456V97.209z"/>
<rect id="_x3C_Slice_x3E__3_" fill="none" width="530.509" height="116.004"/>
<g>
	<g>
		<path fill="#FFFFFF" d="M502.3,16.458c0-1.837,0.301-3.466,0.904-4.887c0.603-1.42,1.427-2.61,2.475-3.572
			c1.048-0.961,2.26-1.693,3.638-2.195s2.841-0.754,4.391-0.754c1.578,0,3.063,0.252,4.456,0.754
			c1.392,0.502,2.604,1.234,3.637,2.195c1.033,0.962,1.844,2.152,2.433,3.572c0.588,1.421,0.883,3.05,0.883,4.887
			s-0.302,3.465-0.904,4.886c-0.603,1.42-1.428,2.611-2.476,3.572c-1.048,0.962-2.26,1.694-3.638,2.196
			c-1.377,0.502-2.841,0.753-4.391,0.753c-1.607,0-3.1-0.251-4.477-0.753c-1.378-0.502-2.583-1.234-3.616-2.196
			c-1.033-0.961-1.845-2.152-2.432-3.572C502.594,19.922,502.3,18.294,502.3,16.458z M505.012,16.458
			c0,1.492,0.229,2.791,0.688,3.896c0.459,1.105,1.083,2.023,1.873,2.755c0.789,0.731,1.714,1.285,2.776,1.657
			c1.062,0.373,2.181,0.56,3.357,0.56c1.233,0,2.382-0.179,3.444-0.538c1.062-0.358,1.979-0.903,2.755-1.636
			c0.774-0.731,1.384-1.649,1.829-2.755c0.445-1.104,0.668-2.417,0.668-3.938c0-1.492-0.23-2.791-0.689-3.896
			c-0.459-1.104-1.083-2.022-1.872-2.755c-0.79-0.731-1.708-1.284-2.755-1.657c-1.049-0.373-2.174-0.56-3.38-0.56
			c-1.263,0-2.425,0.187-3.486,0.56c-1.062,0.373-1.98,0.926-2.755,1.657c-0.775,0.732-1.378,1.65-1.809,2.755
			C505.227,13.667,505.012,14.965,505.012,16.458z M509.274,10.861c0.459-0.144,1.104-0.251,1.938-0.322
			c0.832-0.071,1.62-0.108,2.367-0.108c1.205,0,2.238,0.252,3.1,0.754c0.86,0.502,1.291,1.37,1.291,2.604
			c0,0.918-0.294,1.621-0.882,2.109c-0.589,0.488-1.313,0.761-2.174,0.817l1.205,0.603l3.186,4.692h-2.626l-3.1-4.477l-2.066-0.646
			v5.123h-2.238V10.861z M513.105,12.368c-0.316,0-0.617,0.008-0.904,0.021c-0.287,0.015-0.517,0.064-0.688,0.15v3.057h1.464
			c0.832,0,1.478-0.129,1.938-0.388c0.458-0.258,0.688-0.702,0.688-1.334C515.602,12.87,514.769,12.368,513.105,12.368z"/>
	</g>
</g>
</svg>
